<?xml version="1.0" encoding="UTF-8" standalone="no"?>
<!-- Created with Inkscape (http://www.inkscape.org/) -->

<svg
   xmlns:dc="http://purl.org/dc/elements/1.1/"
   xmlns:cc="http://creativecommons.org/ns#"
   xmlns:rdf="http://www.w3.org/1999/02/22-rdf-syntax-ns#"
   xmlns:svg="http://www.w3.org/2000/svg"
   xmlns="http://www.w3.org/2000/svg"
   xmlns:inkscape="http://www.inkscape.org/namespaces/inkscape"
   version="1.1"
   width="80"
   height="80"
   id="svg2"
   xml:space="preserve"><metadata
     id="metadata8"><rdf:RDF><cc:Work
         rdf:about=""><dc:format>image/svg+xml</dc:format><dc:type
           rdf:resource="http://purl.org/dc/dcmitype/StillImage" /></cc:Work></rdf:RDF></metadata><defs
     id="defs6" /><g
     transform="matrix(1.25,0,0,-1.25,0,80)"
     id="g10"><g
       transform="scale(0.1,0.1)"
       id="g12"><path
         d="m 320,220 c -55.227,0 -100,44.773 -100,100 0,55.227 44.773,100 100,100 55.227,0 100,-44.773 100,-100 0,-55.227 -44.773,-100 -100,-100 z m 209.176,127.582 -41.274,14.688 c -5.179,1.843 -10.894,7.605 -12.703,12.8 l -6.523,15.801 c -2.379,4.961 -2.399,13.082 -0.035,18.047 l 18.75,39.441 c 2.359,4.965 1.289,12.383 -2.383,16.477 l -20.172,20.172 c -4.094,3.672 -11.512,4.742 -16.477,2.383 l -39.441,-18.75 c -4.969,-2.36 -13.086,-2.344 -18.047,0.035 l -15.805,6.519 c -5.195,1.809 -10.953,7.528 -12.796,12.707 l -14.688,41.274 c -1.848,5.183 -7.836,9.812 -13.316,10.293 0,0 -6.071,0.531 -14.266,0.531 -8.195,0 -14.266,-0.531 -14.266,-0.531 -5.48,-0.481 -11.468,-5.11 -13.316,-10.293 L 277.73,487.902 C 275.887,482.723 270.129,477 264.934,475.191 l -15.778,-6.515 c -4.961,-2.379 -13.082,-2.399 -18.047,-0.035 l -39.468,18.75 c -4.965,2.363 -12.383,1.289 -16.477,-2.383 l -20.172,-20.172 c -3.672,-4.094 -4.742,-11.512 -2.383,-16.477 l 18.75,-39.441 c 2.364,-4.965 2.344,-13.086 -0.035,-18.047 l -6.519,-15.805 c -1.809,-5.195 -7.528,-10.953 -12.707,-12.796 l -41.274,-14.688 c -5.183,-1.844 -9.812,-7.836 -10.293,-13.316 0,0 -0.531,-6.071 -0.531,-14.266 0,-8.195 0.531,-14.266 0.531,-14.266 0.481,-5.476 5.11,-11.468 10.293,-13.312 l 41.297,-14.692 c 5.184,-1.843 10.902,-7.601 12.703,-12.796 l 6.528,-15.805 c 2.378,-4.961 2.394,-13.078 0.035,-18.047 l -18.746,-39.441 c -2.364,-4.965 -1.293,-12.383 2.375,-16.481 l 20.175,-20.168 c 4.094,-3.672 11.512,-4.742 16.477,-2.383 l 39.441,18.75 c 4.965,2.364 13.086,2.344 18.047,-0.035 l 15.805,-6.519 c 5.195,-1.809 10.953,-7.528 12.797,-12.707 l 14.691,-41.301 c 1.844,-5.184 7.832,-9.809 13.317,-10.277 0,0 6.039,-0.52 14.234,-0.52 8.195,0 14.266,0.531 14.266,0.531 5.48,0.481 11.468,5.11 13.312,10.293 l 14.692,41.297 c 1.843,5.184 7.601,10.902 12.8,12.707 l 15.801,6.524 c 4.961,2.378 13.078,2.394 18.047,0.035 l 39.441,-18.746 c 4.965,-2.364 12.383,-1.293 16.481,2.375 l 20.168,20.175 c 3.672,4.094 4.742,11.512 2.383,16.477 l -18.75,39.441 c -2.364,4.965 -2.344,13.086 0.035,18.047 l 6.519,15.805 c 1.809,5.195 7.528,10.953 12.707,12.797 l 41.301,14.691 c 5.184,1.844 9.809,7.836 10.277,13.317 0,0 0.52,6.039 0.52,14.234 0,8.195 -0.531,14.266 -0.531,14.266 -0.481,5.48 -5.11,11.472 -10.293,13.316"
         inkscape:connector-curvature="0"
         id="path14"
         style="fill:#ffffff;fill-opacity:1;fill-rule:nonzero;stroke:none" /><path
         d="m 320,365 c -24.852,0 -45,-20.148 -45,-45 0,-24.852 20.148,-45 45,-45 24.852,0 45,20.148 45,45 0,24.852 -20.148,45 -45,45"
         inkscape:connector-curvature="0"
         id="path16"
         style="fill:#ffffff;fill-opacity:1;fill-rule:nonzero;stroke:none" /><path
         d="m 320,275 c -24.852,0 -45,20.148 -45,45 0,24.852 20.148,45 45,45 24.852,0 45,-20.148 45,-45 0,-24.852 -20.148,-45 -45,-45 z m 0,145 c -55.227,0 -100,-44.773 -100,-100 0,-55.227 44.773,-100 100,-100 55.227,0 100,44.773 100,100 0,55.227 -44.773,100 -100,100"
         inkscape:connector-curvature="0"
         id="path18"
         style="fill:#495672;fill-opacity:1;fill-rule:nonzero;stroke:none" /><path
         d="m 539.48,305.766 c -0.468,-5.481 -5.093,-11.473 -10.277,-13.317 l -41.301,-14.691 c -5.179,-1.844 -10.898,-7.602 -12.707,-12.797 l -6.519,-15.805 c -2.379,-4.961 -2.399,-13.082 -0.035,-18.047 l 18.75,-39.441 c 2.359,-4.965 1.289,-12.383 -2.383,-16.477 L 464.84,155.016 c -4.098,-3.668 -11.516,-4.739 -16.481,-2.375 l -39.441,18.746 c -4.969,2.359 -13.086,2.343 -18.047,-0.035 l -15.801,-6.524 c -5.199,-1.805 -10.957,-7.523 -12.8,-12.707 l -14.692,-41.297 c -1.844,-5.183 -7.832,-9.812 -13.312,-10.293 0,0 -6.071,-0.531 -14.266,-0.531 -8.195,0 -14.234,0.52 -14.234,0.52 -5.485,0.468 -11.473,5.093 -13.317,10.277 l -14.691,41.301 c -1.844,5.179 -7.602,10.898 -12.797,12.707 l -15.805,6.519 c -4.961,2.379 -13.082,2.399 -18.047,0.035 l -39.441,-18.75 c -4.965,-2.359 -12.383,-1.289 -16.477,2.383 l -20.175,20.168 c -3.668,4.098 -4.739,11.516 -2.375,16.481 l 18.746,39.441 c 2.359,4.969 2.343,13.086 -0.035,18.047 l -6.528,15.805 c -1.801,5.195 -7.519,10.953 -12.703,12.796 l -41.297,14.692 c -5.183,1.844 -9.812,7.836 -10.293,13.312 0,0 -0.531,6.071 -0.531,14.266 0,8.195 0.531,14.266 0.531,14.266 0.481,5.48 5.11,11.472 10.293,13.316 l 41.274,14.688 c 5.179,1.843 10.898,7.601 12.707,12.796 l 6.519,15.805 c 2.379,4.961 2.399,13.082 0.035,18.047 l -18.75,39.441 c -2.359,4.965 -1.289,12.383 2.383,16.477 l 20.172,20.172 c 4.094,3.672 11.512,4.746 16.477,2.383 l 39.468,-18.75 c 4.965,-2.364 13.086,-2.344 18.047,0.035 l 15.778,6.515 c 5.195,1.809 10.953,7.532 12.796,12.711 l 14.688,41.274 c 1.848,5.183 7.836,9.812 13.316,10.293 0,0 6.071,0.531 14.266,0.531 8.195,0 14.266,-0.531 14.266,-0.531 5.48,-0.481 11.468,-5.11 13.316,-10.293 l 14.688,-41.274 c 1.843,-5.179 7.601,-10.898 12.796,-12.707 l 15.805,-6.519 c 4.961,-2.379 13.078,-2.395 18.047,-0.035 l 39.441,18.75 c 4.965,2.359 12.383,1.289 16.477,-2.383 l 20.172,-20.172 c 3.672,-4.094 4.742,-11.512 2.383,-16.477 l -18.75,-39.441 c -2.364,-4.965 -2.344,-13.086 0.035,-18.047 l 6.523,-15.801 c 1.809,-5.195 7.524,-10.957 12.703,-12.8 l 41.274,-14.688 c 5.183,-1.844 9.812,-7.836 10.293,-13.316 0,0 0.531,-6.071 0.531,-14.266 0,-8.195 -0.52,-14.234 -0.52,-14.234 z M 320,640 C 143.27,640 0,496.73 0,320 0,143.27 143.27,0 320,0 496.73,0 640,143.27 640,320 640,496.73 496.73,640 320,640"
         inkscape:connector-curvature="0"
         id="path20"
         style="fill:#495672;fill-opacity:1;fill-rule:nonzero;stroke:none" /></g></g></svg>